<svg width="20" height="22" viewBox="0 0 20 22" fill="none" xmlns="http://www.w3.org/2000/svg">
<path d="M18.1926 1.60266C16.0558 -0.53422 12.5792 -0.53422 10.4423 1.60266L2.28204 9.76285C2.0302 10.0147 2.0302 10.4227 2.28204 10.6745C2.53388 10.9264 2.94187 10.9264 3.19371 10.6745L11.3539 2.51433C12.9379 0.93153 15.6969 0.93153 17.2809 2.51433C18.9147 4.14813 18.9147 6.80695 17.2809 8.44075L5.8863 19.9637C4.91168 20.9383 3.21364 20.9383 2.23907 19.9637C1.2336 18.9582 1.2336 17.3225 2.23907 16.317L13.1779 5.24929C13.543 4.88414 14.1802 4.88414 14.5454 5.24929C14.9225 5.62638 14.9225 6.24028 14.5454 6.61741L4.06301 17.2287C3.84558 17.4461 3.84558 17.9229 4.06301 18.1403C4.31485 18.3922 4.72283 18.3922 4.97467 18.1403L15.457 7.52904C16.3372 6.64882 16.3372 5.21779 15.457 4.33762C14.6045 3.48516 13.1174 3.48641 12.2662 4.33762L1.3274 15.4053C-0.169029 16.9018 -0.169029 19.3788 1.3274 20.8753C2.05838 21.6063 3.02982 22 4.06296 22C5.0961 22 6.06763 21.6063 6.79797 20.8753L18.1926 9.35237C20.3295 7.21549 20.3295 3.7395 18.1926 1.60266Z" fill="#1E1D28"/>
</svg>
